<svg width="900" height="420" viewBox="0 0 900 420" xmlns="http://www.w3.org/2000/svg">
  <defs>
    <linearGradient id="bgGrad" x1="0" y1="0" x2="0" y2="1">
      <stop offset="0%" stop-color="#0d1117"/>
      <stop offset="100%" stop-color="#0a0d12"/>
    </linearGradient>
  </defs>

  <rect x="0" y="0" width="900" height="420" rx="10" fill="url(#bgGrad)" stroke="#21262d" stroke-width="1"/>

  <circle cx="24" cy="19" r="5.5" fill="#ff5f56"/>
  <circle cx="42" cy="19" r="5.5" fill="#ffbd2e"/>
  <circle cx="60" cy="19" r="5.5" fill="#27c93f"/>
  <text x="450.0" y="23" text-anchor="middle" font-family="Consolas, Menlo, monospace" font-size="11" fill="#6e7681">profile.sh --live</text>
  <line x1="0" y1="38" x2="900" y2="38" stroke="#21262d" stroke-width="1"/>

  <rect x="18" y="56" width="424.0" height="346" rx="6" fill="#0d1117" stroke="#21262d" stroke-width="1"/>
  <g>
      <line x1="38" y1="56" x2="38" y2="402" stroke="#1b2129" stroke-width="1"/>
      <line x1="58" y1="56" x2="58" y2="402" stroke="#1b2129" stroke-width="1"/>
      <line x1="78" y1="56" x2="78" y2="402" stroke="#1b2129" stroke-width="1"/>
      <line x1="98" y1="56" x2="98" y2="402" stroke="#1b2129" stroke-width="1"/>
      <line x1="118" y1="56" x2="118" y2="402" stroke="#1b2129" stroke-width="1"/>
      <line x1="138" y1="56" x2="138" y2="402" stroke="#1b2129" stroke-width="1"/>
      <line x1="158" y1="56" x2="158" y2="402" stroke="#1b2129" stroke-width="1"/>
      <line x1="178" y1="56" x2="178" y2="402" stroke="#1b2129" stroke-width="1"/>
      <line x1="198" y1="56" x2="198" y2="402" stroke="#1b2129" stroke-width="1"/>
      <line x1="218" y1="56" x2="218" y2="402" stroke="#1b2129" stroke-width="1"/>
      <line x1="238" y1="56" x2="238" y2="402" stroke="#1b2129" stroke-width="1"/>
      <line x1="258" y1="56" x2="258" y2="402" stroke="#1b2129" stroke-width="1"/>
      <line x1="278" y1="56" x2="278" y2="402" stroke="#1b2129" stroke-width="1"/>
      <line x1="298" y1="56" x2="298" y2="402" stroke="#1b2129" stroke-width="1"/>
      <line x1="318" y1="56" x2="318" y2="402" stroke="#1b2129" stroke-width="1"/>
      <line x1="338" y1="56" x2="338" y2="402" stroke="#1b2129" stroke-width="1"/>
      <line x1="358" y1="56" x2="358" y2="402" stroke="#1b2129" stroke-width="1"/>
      <line x1="378" y1="56" x2="378" y2="402" stroke="#1b2129" stroke-width="1"/>
      <line x1="398" y1="56" x2="398" y2="402" stroke="#1b2129" stroke-width="1"/>
      <line x1="418" y1="56" x2="418" y2="402" stroke="#1b2129" stroke-width="1"/>
      <line x1="438" y1="56" x2="438" y2="402" stroke="#1b2129" stroke-width="1"/>
      <line x1="18" y1="76" x2="442.0" y2="76" stroke="#1b2129" stroke-width="1"/>
      <line x1="18" y1="96" x2="442.0" y2="96" stroke="#1b2129" stroke-width="1"/>
      <line x1="18" y1="116" x2="442.0" y2="116" stroke="#1b2129" stroke-width="1"/>
      <line x1="18" y1="136" x2="442.0" y2="136" stroke="#1b2129" stroke-width="1"/>
      <line x1="18" y1="156" x2="442.0" y2="156" stroke="#1b2129" stroke-width="1"/>
      <line x1="18" y1="176" x2="442.0" y2="176" stroke="#1b2129" stroke-width="1"/>
      <line x1="18" y1="196" x2="442.0" y2="196" stroke="#1b2129" stroke-width="1"/>
      <line x1="18" y1="216" x2="442.0" y2="216" stroke="#1b2129" stroke-width="1"/>
      <line x1="18" y1="236" x2="442.0" y2="236" stroke="#1b2129" stroke-width="1"/>
      <line x1="18" y1="256" x2="442.0" y2="256" stroke="#1b2129" stroke-width="1"/>
      <line x1="18" y1="276" x2="442.0" y2="276" stroke="#1b2129" stroke-width="1"/>
      <line x1="18" y1="296" x2="442.0" y2="296" stroke="#1b2129" stroke-width="1"/>
      <line x1="18" y1="316" x2="442.0" y2="316" stroke="#1b2129" stroke-width="1"/>
      <line x1="18" y1="336" x2="442.0" y2="336" stroke="#1b2129" stroke-width="1"/>
      <line x1="18" y1="356" x2="442.0" y2="356" stroke="#1b2129" stroke-width="1"/>
      <line x1="18" y1="376" x2="442.0" y2="376" stroke="#1b2129" stroke-width="1"/>
      <line x1="18" y1="396" x2="442.0" y2="396" stroke="#1b2129" stroke-width="1"/>
  </g>
      <path d="M20 68 V58 H30" stroke="#30363d" stroke-width="1.4" fill="none"/>
      <path d="M430.0 58 H440.0 V68" stroke="#30363d" stroke-width="1.4" fill="none"/>
      <path d="M20 390 V400 H30" stroke="#30363d" stroke-width="1.4" fill="none"/>
      <path d="M430.0 400 H440.0 V390" stroke="#30363d" stroke-width="1.4" fill="none"/>
  <text x="36" y="80" font-family="Consolas, Menlo, monospace" font-size="11" font-weight="bold" letter-spacing="1" fill="#58a6ff">VISUAL.MAP</text>
  <text x="424.0" y="80" text-anchor="end" font-family="Consolas, Menlo, monospace" font-size="9.5" fill="#6e7681">240x180 / 1-BIT</text>
  <g>
      <circle cx="163.9" cy="157.2" r="1.2" fill="#79c0ff" opacity="0.9"/>
      <circle cx="168.3" cy="159.7" r="1.6" fill="#c9d1d9" opacity="0.9"/>
      <circle cx="176.9" cy="157.3" r="1.3" fill="#79c0ff" opacity="0.9"/>
      <circle cx="179.6" cy="157.9" r="1.4" fill="#c9d1d9" opacity="0.9"/>
      <circle cx="185.7" cy="157.8" r="1.5" fill="#a5d6ff" opacity="0.9"/>
      <circle cx="254.4" cy="157.9" r="1.5" fill="#8fd3ff" opacity="0.9"/>
      <circle cx="261.5" cy="157.0" r="1.7" fill="#c9d1d9" opacity="0.9"/>
      <circle cx="267.2" cy="158.3" r="1.1" fill="#a5d6ff" opacity="0.9"/>
      <circle cx="274.3" cy="158.3" r="1.0" fill="#8fd3ff" opacity="0.9"/>
      <circle cx="277.0" cy="160.2" r="1.5" fill="#79c0ff" opacity="0.9"/>
      <circle cx="285.8" cy="159.7" r="1.4" fill="#79c0ff" opacity="0.9"/>
      <circle cx="292.5" cy="158.5" r="1.5" fill="#79c0ff" opacity="0.9"/>
      <circle cx="298.1" cy="159.3" r="1.8" fill="#a5d6ff" opacity="0.9"/>
      <circle cx="163.6" cy="165.3" r="0.9" fill="#79c0ff" opacity="0.9"/>
      <circle cx="168.3" cy="163.9" r="1.0" fill="#c9d1d9" opacity="0.9"/>
      <circle cx="174.3" cy="163.2" r="1.2" fill="#c9d1d9" opacity="0.9"/>
      <circle cx="182.1" cy="164.0" r="1.3" fill="#8fd3ff" opacity="0.9"/>
      <circle cx="186.3" cy="163.7" r="1.8" fill="#79c0ff" opacity="0.9"/>
      <circle cx="242.7" cy="165.0" r="1.1" fill="#a5d6ff" opacity="0.9"/>
      <circle cx="249.1" cy="163.3" r="1.3" fill="#8fd3ff" opacity="0.9"/>
      <circle cx="256.2" cy="165.1" r="1.5" fill="#a5d6ff" opacity="0.9"/>
      <circle cx="261.1" cy="165.9" r="1.7" fill="#c9d1d9" opacity="0.9"/>
      <circle cx="265.3" cy="162.9" r="1.2" fill="#8fd3ff" opacity="0.9"/>
      <circle cx="271.6" cy="163.4" r="1.8" fill="#c9d1d9" opacity="0.9"/>
      <circle cx="280.0" cy="163.9" r="1.6" fill="#8fd3ff" opacity="0.9"/>
      <circle cx="284.1" cy="166.1" r="1.4" fill="#a5d6ff" opacity="0.9"/>
      <circle cx="289.8" cy="163.6" r="1.5" fill="#79c0ff" opacity="0.9"/>
      <circle cx="295.8" cy="164.9" r="1.8" fill="#c9d1d9" opacity="0.9"/>
      <circle cx="302.3" cy="163.6" r="1.9" fill="#a5d6ff" opacity="0.9"/>
      <circle cx="308.9" cy="163.0" r="0.9" fill="#79c0ff" opacity="0.9"/>
      <circle cx="313.4" cy="165.0" r="1.7" fill="#8fd3ff" opacity="0.9"/>
      <circle cx="163.0" cy="168.7" r="1.3" fill="#a5d6ff" opacity="0.9"/>
      <circle cx="171.3" cy="170.4" r="1.9" fill="#79c0ff" opacity="0.9"/>
      <circle cx="176.8" cy="168.4" r="1.6" fill="#8fd3ff" opacity="0.9"/>
      <circle cx="182.2" cy="170.4" r="1.2" fill="#8fd3ff" opacity="0.9"/>
      <circle cx="188.1" cy="168.8" r="1.3" fill="#79c0ff" opacity="0.9"/>
      <circle cx="235.9" cy="172.0" r="1.8" fill="#79c0ff" opacity="0.9"/>
      <circle cx="241.2" cy="170.3" r="1.1" fill="#a5d6ff" opacity="0.9"/>
      <circle cx="249.9" cy="171.7" r="1.2" fill="#a5d6ff" opacity="0.9"/>
      <circle cx="254.9" cy="170.7" r="1.1" fill="#8fd3ff" opacity="0.9"/>
      <circle cx="261.4" cy="170.4" r="1.7" fill="#79c0ff" opacity="0.9"/>
      <circle cx="266.6" cy="168.4" r="1.2" fill="#79c0ff" opacity="0.9"/>
      <circle cx="270.6" cy="171.8" r="1.8" fill="#a5d6ff" opacity="0.9"/>
      <circle cx="279.9" cy="169.6" r="1.0" fill="#79c0ff" opacity="0.9"/>
      <circle cx="286.1" cy="172.0" r="1.0" fill="#8fd3ff" opacity="0.9"/>
      <circle cx="290.7" cy="168.7" r="1.7" fill="#79c0ff" opacity="0.9"/>
      <circle cx="297.8" cy="168.8" r="1.4" fill="#79c0ff" opacity="0.9"/>
      <circle cx="303.0" cy="169.4" r="1.8" fill="#79c0ff" opacity="0.9"/>
      <circle cx="308.6" cy="169.3" r="1.4" fill="#8fd3ff" opacity="0.9"/>
      <circle cx="315.8" cy="169.1" r="1.2" fill="#c9d1d9" opacity="0.9"/>
      <circle cx="165.2" cy="176.5" r="1.3" fill="#79c0ff" opacity="0.9"/>
      <circle cx="169.3" cy="174.5" r="1.1" fill="#a5d6ff" opacity="0.9"/>
      <circle cx="174.8" cy="176.2" r="1.1" fill="#79c0ff" opacity="0.9"/>
      <circle cx="180.4" cy="174.4" r="1.5" fill="#8fd3ff" opacity="0.9"/>
      <circle cx="186.5" cy="177.5" r="1.8" fill="#79c0ff" opacity="0.9"/>
      <circle cx="228.3" cy="175.0" r="1.6" fill="#c9d1d9" opacity="0.9"/>
      <circle cx="235.0" cy="174.5" r="1.8" fill="#79c0ff" opacity="0.9"/>
      <circle cx="242.4" cy="175.8" r="1.7" fill="#a5d6ff" opacity="0.9"/>
      <circle cx="249.4" cy="174.8" r="1.0" fill="#c9d1d9" opacity="0.9"/>
      <circle cx="254.0" cy="175.7" r="1.4" fill="#79c0ff" opacity="0.9"/>
      <circle cx="261.2" cy="176.7" r="1.9" fill="#a5d6ff" opacity="0.9"/>
      <circle cx="264.9" cy="175.5" r="1.2" fill="#8fd3ff" opacity="0.9"/>
      <circle cx="273.8" cy="175.0" r="1.1" fill="#8fd3ff" opacity="0.9"/>
      <circle cx="278.4" cy="175.7" r="1.2" fill="#c9d1d9" opacity="0.9"/>
      <circle cx="283.5" cy="177.5" r="1.3" fill="#a5d6ff" opacity="0.9"/>
      <circle cx="292.0" cy="176.1" r="1.0" fill="#79c0ff" opacity="0.9"/>
      <circle cx="298.7" cy="177.2" r="1.9" fill="#c9d1d9" opacity="0.9"/>
      <circle cx="304.5" cy="177.2" r="1.1" fill="#a5d6ff" opacity="0.9"/>
      <circle cx="308.9" cy="175.0" r="1.3" fill="#8fd3ff" opacity="0.9"/>
      <circle cx="313.3" cy="175.5" r="1.9" fill="#c9d1d9" opacity="0.9"/>
      <circle cx="162.4" cy="182.6" r="1.4" fill="#8fd3ff" opacity="0.9"/>
      <circle cx="169.0" cy="183.4" r="1.9" fill="#c9d1d9" opacity="0.9"/>
      <circle cx="175.6" cy="182.5" r="1.1" fill="#c9d1d9" opacity="0.9"/>
      <circle cx="180.7" cy="183.4" r="1.5" fill="#79c0ff" opacity="0.9"/>
      <circle cx="187.7" cy="182.5" r="1.0" fill="#c9d1d9" opacity="0.9"/>
      <circle cx="224.2" cy="181.6" r="1.8" fill="#79c0ff" opacity="0.9"/>
      <circle cx="228.6" cy="183.4" r="1.0" fill="#79c0ff" opacity="0.9"/>
      <circle cx="234.9" cy="181.9" r="1.6" fill="#c9d1d9" opacity="0.9"/>
      <circle cx="241.1" cy="180.2" r="1.8" fill="#c9d1d9" opacity="0.9"/>
      <circle cx="247.1" cy="181.9" r="1.5" fill="#79c0ff" opacity="0.9"/>
      <circle cx="254.0" cy="181.9" r="1.4" fill="#a5d6ff" opacity="0.9"/>
      <circle cx="310.5" cy="180.5" r="1.6" fill="#79c0ff" opacity="0.9"/>
      <circle cx="313.9" cy="181.2" r="1.6" fill="#8fd3ff" opacity="0.9"/>
      <circle cx="162.5" cy="186.6" r="1.7" fill="#c9d1d9" opacity="0.9"/>
      <circle cx="167.7" cy="187.2" r="1.9" fill="#a5d6ff" opacity="0.9"/>
      <circle cx="177.4" cy="185.8" r="1.1" fill="#79c0ff" opacity="0.9"/>
      <circle cx="180.6" cy="188.9" r="1.8" fill="#c9d1d9" opacity="0.9"/>
      <circle cx="189.1" cy="186.9" r="1.1" fill="#c9d1d9" opacity="0.9"/>
      <circle cx="219.2" cy="188.0" r="1.5" fill="#79c0ff" opacity="0.9"/>
      <circle cx="225.9" cy="187.9" r="0.9" fill="#a5d6ff" opacity="0.9"/>
      <circle cx="231.2" cy="186.6" r="1.6" fill="#79c0ff" opacity="0.9"/>
      <circle cx="237.7" cy="185.9" r="1.0" fill="#79c0ff" opacity="0.9"/>
      <circle cx="240.6" cy="187.5" r="1.2" fill="#79c0ff" opacity="0.9"/>
      <circle cx="248.7" cy="188.2" r="1.1" fill="#a5d6ff" opacity="0.9"/>
      <circle cx="163.7" cy="192.2" r="1.4" fill="#79c0ff" opacity="0.9"/>
      <circle cx="171.0" cy="194.3" r="1.0" fill="#c9d1d9" opacity="0.9"/>
      <circle cx="175.1" cy="192.2" r="0.9" fill="#a5d6ff" opacity="0.9"/>
      <circle cx="182.5" cy="193.6" r="1.2" fill="#a5d6ff" opacity="0.9"/>
      <circle cx="188.4" cy="193.2" r="1.3" fill="#8fd3ff" opacity="0.9"/>
      <circle cx="215.9" cy="191.5" r="1.8" fill="#79c0ff" opacity="0.9"/>
      <circle cx="225.6" cy="193.2" r="1.7" fill="#a5d6ff" opacity="0.9"/>
      <circle cx="230.3" cy="191.7" r="1.0" fill="#a5d6ff" opacity="0.9"/>
      <circle cx="235.3" cy="194.4" r="1.7" fill="#c9d1d9" opacity="0.9"/>
      <circle cx="243.5" cy="194.4" r="1.1" fill="#a5d6ff" opacity="0.9"/>
      <circle cx="247.1" cy="191.6" r="1.7" fill="#79c0ff" opacity="0.9"/>
      <circle cx="164.8" cy="198.4" r="1.5" fill="#79c0ff" opacity="0.9"/>
      <circle cx="168.0" cy="200.3" r="1.8" fill="#79c0ff" opacity="0.9"/>
      <circle cx="177.2" cy="199.8" r="1.8" fill="#c9d1d9" opacity="0.9"/>
      <circle cx="179.6" cy="199.6" r="1.2" fill="#c9d1d9" opacity="0.9"/>
      <circle cx="189.2" cy="199.8" r="1.8" fill="#8fd3ff" opacity="0.9"/>
      <circle cx="219.1" cy="197.9" r="1.7" fill="#a5d6ff" opacity="0.9"/>
      <circle cx="222.4" cy="200.1" r="1.8" fill="#79c0ff" opacity="0.9"/>
      <circle cx="228.9" cy="199.8" r="1.4" fill="#79c0ff" opacity="0.9"/>
      <circle cx="235.3" cy="199.8" r="1.1" fill="#79c0ff" opacity="0.9"/>
      <circle cx="240.3" cy="197.6" r="1.2" fill="#79c0ff" opacity="0.9"/>
      <circle cx="164.6" cy="206.1" r="1.2" fill="#8fd3ff" opacity="0.9"/>
      <circle cx="169.9" cy="204.0" r="1.9" fill="#79c0ff" opacity="0.9"/>
      <circle cx="175.6" cy="206.0" r="1.0" fill="#a5d6ff" opacity="0.9"/>
      <circle cx="183.3" cy="203.3" r="1.9" fill="#a5d6ff" opacity="0.9"/>
      <circle cx="186.6" cy="203.0" r="1.3" fill="#79c0ff" opacity="0.9"/>
      <circle cx="218.8" cy="203.7" r="1.5" fill="#c9d1d9" opacity="0.9"/>
      <circle cx="223.9" cy="204.0" r="1.5" fill="#a5d6ff" opacity="0.9"/>
      <circle cx="229.1" cy="205.1" r="0.9" fill="#79c0ff" opacity="0.9"/>
      <circle cx="237.7" cy="204.5" r="1.6" fill="#a5d6ff" opacity="0.9"/>
      <circle cx="243.0" cy="205.0" r="1.3" fill="#8fd3ff" opacity="0.9"/>
      <circle cx="161.6" cy="210.7" r="1.2" fill="#79c0ff" opacity="0.9"/>
      <circle cx="168.6" cy="211.4" r="1.6" fill="#79c0ff" opacity="0.9"/>
      <circle cx="174.6" cy="209.4" r="1.3" fill="#a5d6ff" opacity="0.9"/>
      <circle cx="181.0" cy="209.4" r="1.0" fill="#79c0ff" opacity="0.9"/>
      <circle cx="187.2" cy="211.7" r="1.6" fill="#8fd3ff" opacity="0.9"/>
      <circle cx="219.4" cy="210.5" r="1.2" fill="#c9d1d9" opacity="0.9"/>
      <circle cx="224.1" cy="208.2" r="1.2" fill="#8fd3ff" opacity="0.9"/>
      <circle cx="229.7" cy="210.4" r="1.6" fill="#c9d1d9" opacity="0.9"/>
      <circle cx="235.9" cy="209.8" r="1.1" fill="#c9d1d9" opacity="0.9"/>
      <circle cx="242.0" cy="211.5" r="1.7" fill="#c9d1d9" opacity="0.9"/>
      <circle cx="161.9" cy="214.2" r="1.4" fill="#8fd3ff" opacity="0.9"/>
      <circle cx="169.8" cy="215.2" r="1.7" fill="#a5d6ff" opacity="0.9"/>
      <circle cx="176.5" cy="216.3" r="1.1" fill="#c9d1d9" opacity="0.9"/>
      <circle cx="180.3" cy="214.1" r="1.1" fill="#8fd3ff" opacity="0.9"/>
      <circle cx="187.4" cy="217.1" r="1.0" fill="#8fd3ff" opacity="0.9"/>
      <circle cx="217.6" cy="216.2" r="1.1" fill="#c9d1d9" opacity="0.9"/>
      <circle cx="224.7" cy="215.8" r="1.1" fill="#a5d6ff" opacity="0.9"/>
      <circle cx="230.6" cy="213.9" r="1.7" fill="#c9d1d9" opacity="0.9"/>
      <circle cx="237.1" cy="214.4" r="1.3" fill="#8fd3ff" opacity="0.9"/>
      <circle cx="240.9" cy="217.5" r="1.4" fill="#a5d6ff" opacity="0.9"/>
      <circle cx="161.4" cy="220.5" r="1.7" fill="#c9d1d9" opacity="0.9"/>
      <circle cx="169.2" cy="222.6" r="1.6" fill="#8fd3ff" opacity="0.9"/>
      <circle cx="177.4" cy="221.8" r="1.9" fill="#c9d1d9" opacity="0.9"/>
      <circle cx="183.0" cy="221.9" r="1.6" fill="#c9d1d9" opacity="0.9"/>
      <circle cx="187.5" cy="222.7" r="1.4" fill="#8fd3ff" opacity="0.9"/>
      <circle cx="219.4" cy="222.3" r="1.4" fill="#79c0ff" opacity="0.9"/>
      <circle cx="223.0" cy="220.5" r="1.5" fill="#79c0ff" opacity="0.9"/>
      <circle cx="231.1" cy="221.6" r="1.5" fill="#c9d1d9" opacity="0.9"/>
      <circle cx="235.2" cy="219.9" r="1.2" fill="#79c0ff" opacity="0.9"/>
      <circle cx="241.2" cy="220.8" r="1.4" fill="#79c0ff" opacity="0.9"/>
      <circle cx="161.9" cy="226.2" r="1.6" fill="#a5d6ff" opacity="0.9"/>
      <circle cx="170.1" cy="225.6" r="1.3" fill="#a5d6ff" opacity="0.9"/>
      <circle cx="175.6" cy="226.9" r="1.1" fill="#79c0ff" opacity="0.9"/>
      <circle cx="181.2" cy="228.7" r="1.5" fill="#a5d6ff" opacity="0.9"/>
      <circle cx="188.3" cy="228.4" r="1.7" fill="#79c0ff" opacity="0.9"/>
      <circle cx="217.4" cy="225.3" r="1.3" fill="#79c0ff" opacity="0.9"/>
      <circle cx="225.0" cy="228.4" r="1.9" fill="#a5d6ff" opacity="0.9"/>
      <circle cx="229.7" cy="228.0" r="1.4" fill="#79c0ff" opacity="0.9"/>
      <circle cx="236.5" cy="226.2" r="1.1" fill="#a5d6ff" opacity="0.9"/>
      <circle cx="241.8" cy="225.4" r="1.2" fill="#c9d1d9" opacity="0.9"/>
      <circle cx="164.0" cy="232.6" r="1.1" fill="#79c0ff" opacity="0.9"/>
      <circle cx="169.2" cy="231.4" r="1.5" fill="#a5d6ff" opacity="0.9"/>
      <circle cx="173.6" cy="232.4" r="1.5" fill="#79c0ff" opacity="0.9"/>
      <circle cx="179.6" cy="233.4" r="1.0" fill="#79c0ff" opacity="0.9"/>
      <circle cx="187.4" cy="231.1" r="1.3" fill="#8fd3ff" opacity="0.9"/>
      <circle cx="216.8" cy="232.1" r="1.7" fill="#8fd3ff" opacity="0.9"/>
      <circle cx="223.5" cy="233.8" r="1.7" fill="#a5d6ff" opacity="0.9"/>
      <circle cx="229.1" cy="231.3" r="0.9" fill="#a5d6ff" opacity="0.9"/>
      <circle cx="236.2" cy="234.7" r="1.2" fill="#8fd3ff" opacity="0.9"/>
      <circle cx="242.7" cy="233.8" r="1.6" fill="#79c0ff" opacity="0.9"/>
      <circle cx="164.3" cy="240.2" r="1.1" fill="#79c0ff" opacity="0.9"/>
      <circle cx="167.5" cy="237.3" r="1.0" fill="#8fd3ff" opacity="0.9"/>
      <circle cx="176.0" cy="238.8" r="1.1" fill="#79c0ff" opacity="0.9"/>
      <circle cx="182.2" cy="239.5" r="1.1" fill="#c9d1d9" opacity="0.9"/>
      <circle cx="188.0" cy="239.4" r="1.0" fill="#79c0ff" opacity="0.9"/>
      <circle cx="219.1" cy="240.2" r="1.0" fill="#8fd3ff" opacity="0.9"/>
      <circle cx="222.1" cy="237.8" r="1.6" fill="#c9d1d9" opacity="0.9"/>
      <circle cx="231.8" cy="238.1" r="1.6" fill="#c9d1d9" opacity="0.9"/>
      <circle cx="234.4" cy="239.2" r="1.5" fill="#c9d1d9" opacity="0.9"/>
      <circle cx="240.6" cy="239.5" r="1.8" fill="#8fd3ff" opacity="0.9"/>
      <circle cx="248.7" cy="237.1" r="1.9" fill="#8fd3ff" opacity="0.9"/>
      <circle cx="164.3" cy="243.7" r="1.3" fill="#c9d1d9" opacity="0.9"/>
      <circle cx="168.9" cy="244.2" r="1.2" fill="#79c0ff" opacity="0.9"/>
      <circle cx="176.8" cy="245.4" r="1.0" fill="#a5d6ff" opacity="0.9"/>
      <circle cx="183.3" cy="244.8" r="1.7" fill="#a5d6ff" opacity="0.9"/>
      <circle cx="188.3" cy="243.9" r="1.6" fill="#79c0ff" opacity="0.9"/>
      <circle cx="225.8" cy="243.4" r="1.7" fill="#a5d6ff" opacity="0.9"/>
      <circle cx="230.2" cy="244.2" r="1.3" fill="#a5d6ff" opacity="0.9"/>
      <circle cx="237.0" cy="243.4" r="1.8" fill="#a5d6ff" opacity="0.9"/>
      <circle cx="243.5" cy="242.7" r="1.8" fill="#8fd3ff" opacity="0.9"/>
      <circle cx="247.1" cy="244.1" r="1.5" fill="#c9d1d9" opacity="0.9"/>
      <circle cx="253.8" cy="242.5" r="1.8" fill="#c9d1d9" opacity="0.9"/>
      <circle cx="313.7" cy="243.2" r="1.7" fill="#79c0ff" opacity="0.9"/>
      <circle cx="162.7" cy="251.3" r="1.6" fill="#c9d1d9" opacity="0.9"/>
      <circle cx="168.4" cy="248.1" r="1.8" fill="#c9d1d9" opacity="0.9"/>
      <circle cx="173.7" cy="250.8" r="1.4" fill="#8fd3ff" opacity="0.9"/>
      <circle cx="182.5" cy="250.6" r="1.5" fill="#8fd3ff" opacity="0.9"/>
      <circle cx="187.5" cy="251.0" r="1.0" fill="#8fd3ff" opacity="0.9"/>
      <circle cx="222.9" cy="250.6" r="1.2" fill="#8fd3ff" opacity="0.9"/>
      <circle cx="230.3" cy="249.8" r="1.4" fill="#79c0ff" opacity="0.9"/>
      <circle cx="235.8" cy="250.8" r="1.2" fill="#a5d6ff" opacity="0.9"/>
      <circle cx="242.9" cy="249.1" r="1.2" fill="#a5d6ff" opacity="0.9"/>
      <circle cx="246.7" cy="248.8" r="1.0" fill="#79c0ff" opacity="0.9"/>
      <circle cx="254.4" cy="250.9" r="1.1" fill="#c9d1d9" opacity="0.9"/>
      <circle cx="259.3" cy="249.9" r="1.6" fill="#a5d6ff" opacity="0.9"/>
      <circle cx="304.6" cy="250.1" r="1.2" fill="#8fd3ff" opacity="0.9"/>
      <circle cx="307.4" cy="248.8" r="1.1" fill="#c9d1d9" opacity="0.9"/>
      <circle cx="313.7" cy="248.1" r="1.4" fill="#a5d6ff" opacity="0.9"/>
      <circle cx="162.4" cy="257.3" r="1.5" fill="#8fd3ff" opacity="0.9"/>
      <circle cx="170.1" cy="254.2" r="1.8" fill="#79c0ff" opacity="0.9"/>
      <circle cx="175.4" cy="257.0" r="1.5" fill="#8fd3ff" opacity="0.9"/>
      <circle cx="181.3" cy="255.3" r="1.1" fill="#c9d1d9" opacity="0.9"/>
      <circle cx="185.7" cy="257.2" r="1.4" fill="#8fd3ff" opacity="0.9"/>
      <circle cx="231.2" cy="255.2" r="1.0" fill="#8fd3ff" opacity="0.9"/>
      <circle cx="236.5" cy="253.9" r="1.0" fill="#79c0ff" opacity="0.9"/>
      <circle cx="242.4" cy="254.9" r="1.9" fill="#8fd3ff" opacity="0.9"/>
      <circle cx="246.7" cy="256.6" r="1.5" fill="#a5d6ff" opacity="0.9"/>
      <circle cx="255.5" cy="254.6" r="1.4" fill="#8fd3ff" opacity="0.9"/>
      <circle cx="260.2" cy="255.5" r="1.8" fill="#c9d1d9" opacity="0.9"/>
      <circle cx="268.4" cy="254.9" r="1.5" fill="#a5d6ff" opacity="0.9"/>
      <circle cx="272.9" cy="256.5" r="1.8" fill="#8fd3ff" opacity="0.9"/>
      <circle cx="277.3" cy="254.5" r="1.6" fill="#a5d6ff" opacity="0.9"/>
      <circle cx="283.2" cy="254.5" r="1.0" fill="#c9d1d9" opacity="0.9"/>
      <circle cx="288.7" cy="255.5" r="1.5" fill="#8fd3ff" opacity="0.9"/>
      <circle cx="296.0" cy="254.6" r="1.6" fill="#79c0ff" opacity="0.9"/>
      <circle cx="303.6" cy="255.5" r="1.6" fill="#8fd3ff" opacity="0.9"/>
      <circle cx="310.5" cy="256.6" r="1.5" fill="#a5d6ff" opacity="0.9"/>
      <circle cx="315.5" cy="257.2" r="1.3" fill="#79c0ff" opacity="0.9"/>
      <circle cx="163.4" cy="261.9" r="1.8" fill="#c9d1d9" opacity="0.9"/>
      <circle cx="170.5" cy="259.7" r="1.1" fill="#a5d6ff" opacity="0.9"/>
      <circle cx="174.6" cy="262.1" r="1.5" fill="#a5d6ff" opacity="0.9"/>
      <circle cx="180.7" cy="259.9" r="1.6" fill="#c9d1d9" opacity="0.9"/>
      <circle cx="188.3" cy="263.0" r="1.4" fill="#a5d6ff" opacity="0.9"/>
      <circle cx="236.1" cy="259.7" r="0.9" fill="#a5d6ff" opacity="0.9"/>
      <circle cx="241.8" cy="260.6" r="1.2" fill="#8fd3ff" opacity="0.9"/>
      <circle cx="246.5" cy="263.0" r="1.7" fill="#a5d6ff" opacity="0.9"/>
      <circle cx="254.6" cy="263.0" r="1.9" fill="#c9d1d9" opacity="0.9"/>
      <circle cx="260.9" cy="260.4" r="0.9" fill="#a5d6ff" opacity="0.9"/>
      <circle cx="267.5" cy="261.1" r="1.6" fill="#c9d1d9" opacity="0.9"/>
      <circle cx="274.1" cy="260.2" r="1.5" fill="#a5d6ff" opacity="0.9"/>
      <circle cx="279.1" cy="261.3" r="1.0" fill="#c9d1d9" opacity="0.9"/>
      <circle cx="284.0" cy="260.7" r="1.6" fill="#a5d6ff" opacity="0.9"/>
      <circle cx="292.0" cy="260.7" r="1.6" fill="#c9d1d9" opacity="0.9"/>
      <circle cx="295.8" cy="263.0" r="1.7" fill="#c9d1d9" opacity="0.9"/>
      <circle cx="303.0" cy="261.1" r="1.2" fill="#c9d1d9" opacity="0.9"/>
      <circle cx="308.1" cy="263.0" r="1.3" fill="#c9d1d9" opacity="0.9"/>
      <circle cx="314.9" cy="263.1" r="1.6" fill="#79c0ff" opacity="0.9"/>
      <circle cx="163.4" cy="266.7" r="1.1" fill="#79c0ff" opacity="0.9"/>
      <circle cx="168.7" cy="268.0" r="1.5" fill="#8fd3ff" opacity="0.9"/>
      <circle cx="176.5" cy="265.8" r="1.4" fill="#c9d1d9" opacity="0.9"/>
      <circle cx="183.1" cy="266.7" r="1.6" fill="#79c0ff" opacity="0.9"/>
      <circle cx="186.0" cy="268.7" r="1.5" fill="#c9d1d9" opacity="0.9"/>
      <circle cx="241.1" cy="265.7" r="1.5" fill="#a5d6ff" opacity="0.9"/>
      <circle cx="248.4" cy="265.4" r="1.9" fill="#79c0ff" opacity="0.9"/>
      <circle cx="255.9" cy="266.8" r="1.0" fill="#79c0ff" opacity="0.9"/>
      <circle cx="261.7" cy="267.0" r="1.6" fill="#79c0ff" opacity="0.9"/>
      <circle cx="266.4" cy="266.1" r="1.7" fill="#79c0ff" opacity="0.9"/>
      <circle cx="274.3" cy="266.0" r="1.5" fill="#8fd3ff" opacity="0.9"/>
      <circle cx="278.1" cy="268.5" r="1.4" fill="#79c0ff" opacity="0.9"/>
      <circle cx="286.1" cy="268.3" r="1.2" fill="#8fd3ff" opacity="0.9"/>
      <circle cx="291.9" cy="266.7" r="1.8" fill="#a5d6ff" opacity="0.9"/>
      <circle cx="296.7" cy="268.1" r="1.2" fill="#a5d6ff" opacity="0.9"/>
      <circle cx="302.0" cy="267.3" r="1.9" fill="#c9d1d9" opacity="0.9"/>
      <circle cx="308.9" cy="265.7" r="1.4" fill="#8fd3ff" opacity="0.9"/>
      <circle cx="156.6" cy="272.8" r="1.4" fill="#8fd3ff" opacity="0.9"/>
      <circle cx="163.1" cy="272.0" r="1.1" fill="#a5d6ff" opacity="0.9"/>
      <circle cx="170.1" cy="273.0" r="1.1" fill="#8fd3ff" opacity="0.9"/>
      <circle cx="176.5" cy="271.0" r="1.6" fill="#c9d1d9" opacity="0.9"/>
      <circle cx="182.2" cy="273.8" r="1.3" fill="#79c0ff" opacity="0.9"/>
      <circle cx="188.1" cy="273.8" r="1.9" fill="#79c0ff" opacity="0.9"/>
      <circle cx="260.3" cy="271.0" r="1.4" fill="#8fd3ff" opacity="0.9"/>
      <circle cx="266.7" cy="274.1" r="1.8" fill="#c9d1d9" opacity="0.9"/>
      <circle cx="272.2" cy="272.8" r="1.4" fill="#c9d1d9" opacity="0.9"/>
      <circle cx="279.4" cy="272.4" r="1.6" fill="#79c0ff" opacity="0.9"/>
      <circle cx="283.2" cy="272.5" r="1.9" fill="#79c0ff" opacity="0.9"/>
      <circle cx="290.1" cy="273.4" r="1.5" fill="#c9d1d9" opacity="0.9"/>
      <circle cx="298.1" cy="273.9" r="1.8" fill="#c9d1d9" opacity="0.9"/>
      <circle cx="156.7" cy="277.6" r="1.6" fill="#c9d1d9" opacity="0.9"/>
      <circle cx="164.3" cy="279.8" r="0.9" fill="#a5d6ff" opacity="0.9"/>
      <circle cx="167.7" cy="278.8" r="1.8" fill="#c9d1d9" opacity="0.9"/>
      <circle cx="177.4" cy="279.2" r="1.3" fill="#a5d6ff" opacity="0.9"/>
      <circle cx="179.9" cy="278.8" r="1.8" fill="#c9d1d9" opacity="0.9"/>
      <circle cx="138.8" cy="284.8" r="1.8" fill="#8fd3ff" opacity="0.9"/>
      <circle cx="143.2" cy="285.2" r="1.2" fill="#79c0ff" opacity="0.9"/>
      <circle cx="150.7" cy="282.8" r="1.4" fill="#79c0ff" opacity="0.9"/>
      <circle cx="157.5" cy="285.2" r="1.1" fill="#79c0ff" opacity="0.9"/>
      <circle cx="161.6" cy="285.5" r="1.5" fill="#79c0ff" opacity="0.9"/>
      <circle cx="168.3" cy="285.6" r="1.0" fill="#8fd3ff" opacity="0.9"/>
      <circle cx="175.2" cy="283.2" r="1.2" fill="#a5d6ff" opacity="0.9"/>
      <circle cx="179.5" cy="285.2" r="1.8" fill="#79c0ff" opacity="0.9"/>
      <circle cx="139.8" cy="288.5" r="1.3" fill="#79c0ff" opacity="0.9"/>
      <circle cx="144.5" cy="290.0" r="1.5" fill="#8fd3ff" opacity="0.9"/>
      <circle cx="150.8" cy="288.9" r="1.7" fill="#8fd3ff" opacity="0.9"/>
      <circle cx="156.0" cy="289.3" r="1.4" fill="#8fd3ff" opacity="0.9"/>
      <circle cx="162.2" cy="290.0" r="1.5" fill="#c9d1d9" opacity="0.9"/>
      <circle cx="171.3" cy="289.0" r="1.9" fill="#79c0ff" opacity="0.9"/>
      <circle cx="176.0" cy="288.9" r="1.5" fill="#a5d6ff" opacity="0.9"/>
      <circle cx="139.8" cy="296.3" r="0.9" fill="#c9d1d9" opacity="0.9"/>
      <circle cx="145.5" cy="295.4" r="1.8" fill="#8fd3ff" opacity="0.9"/>
      <circle cx="150.2" cy="296.6" r="1.5" fill="#79c0ff" opacity="0.9"/>
      <circle cx="156.6" cy="296.0" r="1.5" fill="#a5d6ff" opacity="0.9"/>
      <circle cx="164.0" cy="296.3" r="1.6" fill="#a5d6ff" opacity="0.9"/>
      <circle cx="170.7" cy="295.8" r="1.8" fill="#c9d1d9" opacity="0.9"/>
      <circle cx="139.6" cy="300.4" r="1.3" fill="#79c0ff" opacity="0.9"/>
      <circle cx="145.4" cy="302.0" r="1.0" fill="#a5d6ff" opacity="0.9"/>
      <circle cx="150.4" cy="302.0" r="1.1" fill="#8fd3ff" opacity="0.9"/>
      <circle cx="155.7" cy="301.3" r="1.9" fill="#a5d6ff" opacity="0.9"/>
  </g>
  <text x="36" y="388" font-family="Consolas, Menlo, monospace" font-size="9" fill="#484f58">SIG 0x4A43 · V2</text>
  <text x="424.0" y="388" text-anchor="end" font-family="Consolas, Menlo, monospace" font-size="9" fill="#484f58">SCALE 1:1</text>

  <rect x="458.0" y="56" width="424.0" height="346" rx="6" fill="#0d1117" stroke="#21262d" stroke-width="1"/>
  <g>
      <line x1="478.0" y1="56" x2="478.0" y2="402" stroke="#1b2129" stroke-width="1"/>
      <line x1="498.0" y1="56" x2="498.0" y2="402" stroke="#1b2129" stroke-width="1"/>
      <line x1="518.0" y1="56" x2="518.0" y2="402" stroke="#1b2129" stroke-width="1"/>
      <line x1="538.0" y1="56" x2="538.0" y2="402" stroke="#1b2129" stroke-width="1"/>
      <line x1="558.0" y1="56" x2="558.0" y2="402" stroke="#1b2129" stroke-width="1"/>
      <line x1="578.0" y1="56" x2="578.0" y2="402" stroke="#1b2129" stroke-width="1"/>
      <line x1="598.0" y1="56" x2="598.0" y2="402" stroke="#1b2129" stroke-width="1"/>
      <line x1="618.0" y1="56" x2="618.0" y2="402" stroke="#1b2129" stroke-width="1"/>
      <line x1="638.0" y1="56" x2="638.0" y2="402" stroke="#1b2129" stroke-width="1"/>
      <line x1="658.0" y1="56" x2="658.0" y2="402" stroke="#1b2129" stroke-width="1"/>
      <line x1="678.0" y1="56" x2="678.0" y2="402" stroke="#1b2129" stroke-width="1"/>
      <line x1="698.0" y1="56" x2="698.0" y2="402" stroke="#1b2129" stroke-width="1"/>
      <line x1="718.0" y1="56" x2="718.0" y2="402" stroke="#1b2129" stroke-width="1"/>
      <line x1="738.0" y1="56" x2="738.0" y2="402" stroke="#1b2129" stroke-width="1"/>
      <line x1="758.0" y1="56" x2="758.0" y2="402" stroke="#1b2129" stroke-width="1"/>
      <line x1="778.0" y1="56" x2="778.0" y2="402" stroke="#1b2129" stroke-width="1"/>
      <line x1="798.0" y1="56" x2="798.0" y2="402" stroke="#1b2129" stroke-width="1"/>
      <line x1="818.0" y1="56" x2="818.0" y2="402" stroke="#1b2129" stroke-width="1"/>
      <line x1="838.0" y1="56" x2="838.0" y2="402" stroke="#1b2129" stroke-width="1"/>
      <line x1="858.0" y1="56" x2="858.0" y2="402" stroke="#1b2129" stroke-width="1"/>
      <line x1="878.0" y1="56" x2="878.0" y2="402" stroke="#1b2129" stroke-width="1"/>
      <line x1="458.0" y1="76" x2="882.0" y2="76" stroke="#1b2129" stroke-width="1"/>
      <line x1="458.0" y1="96" x2="882.0" y2="96" stroke="#1b2129" stroke-width="1"/>
      <line x1="458.0" y1="116" x2="882.0" y2="116" stroke="#1b2129" stroke-width="1"/>
      <line x1="458.0" y1="136" x2="882.0" y2="136" stroke="#1b2129" stroke-width="1"/>
      <line x1="458.0" y1="156" x2="882.0" y2="156" stroke="#1b2129" stroke-width="1"/>
      <line x1="458.0" y1="176" x2="882.0" y2="176" stroke="#1b2129" stroke-width="1"/>
      <line x1="458.0" y1="196" x2="882.0" y2="196" stroke="#1b2129" stroke-width="1"/>
      <line x1="458.0" y1="216" x2="882.0" y2="216" stroke="#1b2129" stroke-width="1"/>
      <line x1="458.0" y1="236" x2="882.0" y2="236" stroke="#1b2129" stroke-width="1"/>
      <line x1="458.0" y1="256" x2="882.0" y2="256" stroke="#1b2129" stroke-width="1"/>
      <line x1="458.0" y1="276" x2="882.0" y2="276" stroke="#1b2129" stroke-width="1"/>
      <line x1="458.0" y1="296" x2="882.0" y2="296" stroke="#1b2129" stroke-width="1"/>
      <line x1="458.0" y1="316" x2="882.0" y2="316" stroke="#1b2129" stroke-width="1"/>
      <line x1="458.0" y1="336" x2="882.0" y2="336" stroke="#1b2129" stroke-width="1"/>
      <line x1="458.0" y1="356" x2="882.0" y2="356" stroke="#1b2129" stroke-width="1"/>
      <line x1="458.0" y1="376" x2="882.0" y2="376" stroke="#1b2129" stroke-width="1"/>
      <line x1="458.0" y1="396" x2="882.0" y2="396" stroke="#1b2129" stroke-width="1"/>
  </g>
      <path d="M460.0 68 V58 H470.0" stroke="#30363d" stroke-width="1.4" fill="none"/>
      <path d="M870.0 58 H880.0 V68" stroke="#30363d" stroke-width="1.4" fill="none"/>
      <path d="M460.0 390 V400 H470.0" stroke="#30363d" stroke-width="1.4" fill="none"/>
      <path d="M870.0 400 H880.0 V390" stroke="#30363d" stroke-width="1.4" fill="none"/>
  <text x="480.0" y="80" font-family="Consolas, Menlo, monospace" font-size="11" font-weight="bold" letter-spacing="1" fill="#58a6ff">SYSTEM.INFO</text>
  <circle cx="774.0" cy="76.5" r="3" fill="#3fb950"/>
  <text x="782.0" y="80" font-family="Consolas, Menlo, monospace" font-size="9.5" fill="#3fb950">LIVE</text>
  <rect x="812.0" y="69" width="52" height="15" rx="7.5" fill="#161b22" stroke="#30363d" stroke-width="1"/>
  <text x="838.0" y="79.5" text-anchor="middle" font-family="Consolas, Menlo, monospace" font-size="8.5" fill="#79c0ff">@jcavalos</text>
  <line x1="474.0" y1="90" x2="866.0" y2="90" stroke="#21262d" stroke-width="1"/>
      <text x="480.0" y="106.0" font-family="Consolas, 'SFMono-Regular', Menlo, monospace" font-size="10.5" fill="#7ee787">Subject</text><text x="862.0" y="106.0" font-family="Consolas, 'SFMono-Regular', Menlo, monospace" font-size="10.5" fill="#c9d1d9" text-anchor="end">Juan Carlos Avalos</text>
      <text x="480.0" y="121.6" font-family="Consolas, 'SFMono-Regular', Menlo, monospace" font-size="10.5" fill="#7ee787">Role</text><text x="862.0" y="121.6" font-family="Consolas, 'SFMono-Regular', Menlo, monospace" font-size="10.5" fill="#c9d1d9" text-anchor="end">Full Stack Dev · AI</text>
      <text x="480.0" y="137.2" font-family="Consolas, 'SFMono-Regular', Menlo, monospace" font-size="10.5" fill="#79c0ff">Origin</text><text x="862.0" y="137.2" font-family="Consolas, 'SFMono-Regular', Menlo, monospace" font-size="10.5" fill="#c9d1d9" text-anchor="end">Ciudad de Mexico, MX</text>
      <text x="480.0" y="152.8" font-family="Consolas, 'SFMono-Regular', Menlo, monospace" font-size="10.5" fill="#79c0ff">Education</text><text x="862.0" y="152.8" font-family="Consolas, 'SFMono-Regular', Menlo, monospace" font-size="10.5" fill="#c9d1d9" text-anchor="end">Ing. Desarrollo de Software</text>
      <text x="480.0" y="168.4" font-family="Consolas, 'SFMono-Regular', Menlo, monospace" font-size="10.5" fill="#79c0ff">Status</text><text x="862.0" y="168.4" font-family="Consolas, 'SFMono-Regular', Menlo, monospace" font-size="10.5" fill="#c9d1d9" text-anchor="end">Building RAG + multi-agent MCP</text>
      <text x="480.0" y="184.0" font-family="Consolas, 'SFMono-Regular', Menlo, monospace" font-size="10.5" fill="#79c0ff">Toolchain</text><text x="862.0" y="184.0" font-family="Consolas, 'SFMono-Regular', Menlo, monospace" font-size="10.5" fill="#c9d1d9" text-anchor="end">Git · VS Code · Docker</text>
      <text x="480.0" y="199.6" font-family="Consolas, 'SFMono-Regular', Menlo, monospace" font-size="10.5" fill="#79c0ff">Core.Lang</text><text x="862.0" y="199.6" font-family="Consolas, 'SFMono-Regular', Menlo, monospace" font-size="10.5" fill="#c9d1d9" text-anchor="end">Python · JavaScript</text>
      <text x="480.0" y="215.2" font-family="Consolas, 'SFMono-Regular', Menlo, monospace" font-size="10.5" fill="#79c0ff">Core.Frontend</text><text x="862.0" y="215.2" font-family="Consolas, 'SFMono-Regular', Menlo, monospace" font-size="10.5" fill="#c9d1d9" text-anchor="end">React</text>
      <text x="480.0" y="230.8" font-family="Consolas, 'SFMono-Regular', Menlo, monospace" font-size="10.5" fill="#79c0ff">Core.Backend</text><text x="862.0" y="230.8" font-family="Consolas, 'SFMono-Regular', Menlo, monospace" font-size="10.5" fill="#c9d1d9" text-anchor="end">Firebase Functions</text>
      <text x="480.0" y="246.4" font-family="Consolas, 'SFMono-Regular', Menlo, monospace" font-size="10.5" fill="#79c0ff">Core.Database</text><text x="862.0" y="246.4" font-family="Consolas, 'SFMono-Regular', Menlo, monospace" font-size="10.5" fill="#c9d1d9" text-anchor="end">Firestore</text>
      <text x="480.0" y="262.0" font-family="Consolas, 'SFMono-Regular', Menlo, monospace" font-size="10.5" fill="#79c0ff">Core.Infra</text><text x="862.0" y="262.0" font-family="Consolas, 'SFMono-Regular', Menlo, monospace" font-size="10.5" fill="#c9d1d9" text-anchor="end">Vercel · Firebase</text>
      <text x="480.0" y="277.6" font-family="Consolas, 'SFMono-Regular', Menlo, monospace" font-size="10.5" fill="#f78166">Grid.Mail</text><text x="862.0" y="277.6" font-family="Consolas, 'SFMono-Regular', Menlo, monospace" font-size="10.5" fill="#c9d1d9" text-anchor="end">tu@email.com</text>
      <text x="480.0" y="293.2" font-family="Consolas, 'SFMono-Regular', Menlo, monospace" font-size="10.5" fill="#f78166">Grid.LinkedIn</text><text x="862.0" y="293.2" font-family="Consolas, 'SFMono-Regular', Menlo, monospace" font-size="10.5" fill="#c9d1d9" text-anchor="end">/in/juan-carlos-avalos...</text>
      <text x="480.0" y="308.8" font-family="Consolas, 'SFMono-Regular', Menlo, monospace" font-size="10.5" fill="#f78166">Grid.GitHub</text><text x="862.0" y="308.8" font-family="Consolas, 'SFMono-Regular', Menlo, monospace" font-size="10.5" fill="#c9d1d9" text-anchor="end">jcavalos</text>
      <text x="480.0" y="324.4" font-family="Consolas, 'SFMono-Regular', Menlo, monospace" font-size="10.5" fill="#f78166">Grid.X</text><text x="862.0" y="324.4" font-family="Consolas, 'SFMono-Regular', Menlo, monospace" font-size="10.5" fill="#c9d1d9" text-anchor="end">@tu_usuario</text>
  <line x1="474.0" y1="376" x2="866.0" y2="376" stroke="#21262d" stroke-width="1"/>
  <text x="480.0" y="389" font-family="Consolas, Menlo, monospace" font-size="9" fill="#3fb950">* ALL SYSTEMS NOMINAL</text>
  <text x="860.0" y="389" text-anchor="end" font-family="Consolas, Menlo, monospace" font-size="9" fill="#484f58">UTC-6 · CDMX NODE</text>
</svg>